<?xml version="1.0" encoding="UTF-8"?>
<svg version="1.1" xmlns="http://www.w3.org/2000/svg" width="512" height="512">
<path d="M0 0 C63.69 0 127.38 0 193 0 C193 0.66 193 1.32 193 2 C193.58007812 2.10957031 194.16015625 2.21914062 194.7578125 2.33203125 C198.64666673 3.12135315 201.77186348 3.87947505 205.3125 5.75 C207.86739882 7.32307698 207.86739882 7.32307698 210.0625 6.25 C210.701875 5.8375 211.34125 5.425 212 5 C213.65740715 4.62331656 215.32345271 4.27942455 217 4 C217.33 4.99 217.66 5.98 218 7 C219.32848691 8.00642948 220.66150329 9.00692179 222 10 C222 10.66 222 11.32 222 12 C222.639375 12.268125 223.27875 12.53625 223.9375 12.8125 C226 14 226 14 227 17 C232.05992602 19.52996301 239.92418513 18.54197104 245.25 17 C246.1575 16.67 247.065 16.34 248 16 C248.37125 14.2675 248.37125 14.2675 248.75 12.5 C249.87406348 7.93858296 251.78628691 4.13226443 254 0 C258.29 0 262.58 0 267 0 C267.33 1.65 267.66 3.3 268 5 C268.66 5.99 269.32 6.98 270 8 C270.165 9.03125 270.33 10.0625 270.5 11.125 C270.665 12.07375 270.83 13.0225 271 14 C271.66 14.33 272.32 14.66 273 15 C273.37125 15.78375 273.7425 16.5675 274.125 17.375 C276.75394736 21.05552631 279.68846244 21.96294456 284 23 C287.53099567 23.26649024 289.64329803 23.11890066 293 22 C293.33 21.34 293.66 20.68 294 20 C294.804375 19.54625 295.60875 19.0925 296.4375 18.625 C299.12665522 17.27266232 299.12665522 17.27266232 299.8125 14.9375 C301.34435647 12.43815524 302.33592375 12.43872111 305.125 11.75 C306.40375 11.5025 307.6825 11.255 309 11 C309 11.66 309 12.32 309 13 C310.98 13.66 312.96 14.32 315 15 C314.69444679 18.16810435 314.50148535 19.58291335 312.00390625 21.66015625 C311.19824219 22.12292969 310.39257812 22.58570312 309.5625 23.0625 C306.17884552 25.02317298 304.44971267 26.31630388 303 30 C302.34 30 301.68 30 301 30 C300.67 30.99 300.34 31.98 300 33 C298.01502851 34.16360398 296.02254371 34.99138034 293.875 35.8125 C291.76506921 36.8876418 291.76506921 36.8876418 291.0625 39.4375 C289.6834642 42.76340987 288.10085284 43.26929144 285 45 C283.2958946 46.62836738 281.61974559 48.28769752 280 50 C279.13375 49.505 279.13375 49.505 278.25 49 C275.80116138 47.72924102 275.80116138 47.72924102 272 48 C272 47.34 272 46.68 272 46 C270.68 46.33 269.36 46.66 268 47 C268 46.67 268 46.34 268 46 C265.69 46 263.38 46 261 46 C261.42152344 46.65226562 261.84304688 47.30453125 262.27734375 47.9765625 C262.82519531 48.85054687 263.37304688 49.72453125 263.9375 50.625 C264.48277344 51.48351562 265.02804687 52.34203125 265.58984375 53.2265625 C267.19497926 56.38347722 268.04162193 58.43901306 268 62 C266.19458766 64.20111915 264.66691086 65.73427541 262.5 67.5 C261.94626709 67.97775879 261.39253418 68.45551758 260.82202148 68.94775391 C259.22912339 70.31682175 257.61761102 71.66030916 256 73 C254.68617368 74.12345077 253.37334994 75.24807778 252.0625 76.375 C251.52625 76.82875 250.99 77.2825 250.4375 77.75 C248.17276943 79.71933093 246.09580103 81.85308187 244 84 C239.62860095 88.46601808 235.19494609 92.75370514 230.45703125 96.828125 C227.1185759 99.77912846 223.87502736 102.82724482 220.625 105.875 C216.4715578 109.76891555 212.31207291 113.64811773 208.0625 117.4375 C203.5880828 121.43895028 199.19472425 125.52320605 194.8125 129.625 C194.14677979 130.24689209 193.48105957 130.86878418 192.79516602 131.50952148 C188.970133 135.09861166 185.2304308 138.75649452 181.53393555 142.47753906 C179.75010777 144.24802291 177.90548496 145.9239472 176 147.5625 C175.33871094 148.13484375 174.67742187 148.7071875 173.99609375 149.296875 C172.65932652 150.43744351 171.31812166 151.57283036 169.97265625 152.703125 C169.34230469 153.23421875 168.71195313 153.7653125 168.0625 154.3125 C167.49660156 154.78300781 166.93070313 155.25351563 166.34765625 155.73828125 C164.86554616 156.97950473 164.86554616 156.97950473 164 159 C163.01 159 162.02 159 161 159 C160.67 159.66 160.34 160.32 160 161 C158.54564528 162.2229801 157.08882069 163.4432899 155.61328125 164.640625 C154.15299361 165.87108529 152.78777266 167.21222734 151.4375 168.5625 C149 171 149 171 146.25 173.1875 C143.92512612 174.80309077 143.92512612 174.80309077 143 177 C142.34 177 141.68 177 141 177 C140.835 177.680625 140.67 178.36125 140.5 179.0625 C138.71108805 182.56578591 136.6841795 184.25844926 133.63183594 186.68139648 C131.59885588 188.47241797 129.97473091 190.14199323 128.23828125 192.18603516 C122.64003064 198.49495264 117.89622093 202.61531216 109.27032471 203.41668701 C104.58550564 203.59823374 99.9345141 203.51899121 95.25 203.375 C93.30730823 203.3665648 91.36458233 203.36392135 89.421875 203.3671875 C75.64267096 203.32133548 75.64267096 203.32133548 73 202 C73.05236816 203.15935059 73.10473633 204.31870117 73.15869141 205.51318359 C73.34102756 209.85483205 73.45495549 214.19615059 73.54931641 218.54052734 C73.59930959 220.4128527 73.66733455 222.28479349 73.75439453 224.15576172 C74.49721242 240.5414505 74.49721242 240.5414505 70.86791992 245.3996582 C68.37139884 247.90900663 65.88803404 249.96358347 63 252 C61.67654288 253.13315998 60.36158794 254.27648285 59.0625 255.4375 C58.10537109 256.25541016 58.10537109 256.25541016 57.12890625 257.08984375 C53.56543241 260.28716248 50.24973056 263.73220364 46.90625 267.15625 C44.09233653 269.97416051 41.09724113 272.56018521 38.08789062 275.16601562 C34.64419711 278.19092508 31.32724344 281.34821666 28 284.5 C22.767107 289.45693966 17.44470083 294.27686839 12 299 C10.33121676 300.47677835 8.66408241 301.95542661 7 303.4375 C5.8553125 304.45650391 5.8553125 304.45650391 4.6875 305.49609375 C4.130625 305.99238281 3.57375 306.48867188 3 307 C2.01 306.67 1.02 306.34 0 306 C-0.09407209 291.61210979 -0.16401618 277.2242683 -0.20724869 262.83613205 C-0.22774197 256.15317351 -0.25611934 249.47044669 -0.30175781 242.78759766 C-0.34562261 236.32308185 -0.36922196 229.85876493 -0.37950897 223.39411163 C-0.38682807 220.94328944 -0.40111743 218.49247656 -0.42292023 216.04174042 C-0.62685647 192.1402794 0.81494016 167.75976159 18.0625 149.375 C30.21696488 137.85273044 44.93624476 131.99065031 61.56591797 131.79467773 C62.29831192 131.78477814 63.03070587 131.77487854 63.78529358 131.76467896 C66.18755954 131.73328573 68.58984522 131.70839502 70.9921875 131.68359375 C72.66513561 131.66300503 74.33807875 131.64200807 76.01101685 131.62062073 C80.40034945 131.56559808 84.78972745 131.51610199 89.17913818 131.46777344 C93.66373707 131.41741321 98.14827056 131.36180316 102.6328125 131.30664062 C111.4218196 131.19930155 120.21088164 131.09780339 129 131 C129.33 130.34 129.66 129.68 130 129 C129.443125 128.773125 128.88625 128.54625 128.3125 128.3125 C126 127 126 127 123.5625 124.5 C121.21011949 121.88302136 121.21011949 121.88302136 118.3125 120.9375 C116 120 116 120 114.5 118.375 C113.57325655 113.97296863 116.05121696 109.89756609 118 106 C120.14453125 105.40234375 120.14453125 105.40234375 122.8125 104.9375 C127.4570886 104.17903525 127.4570886 104.17903525 132 103 C132.33 102.34 132.66 101.68 133 101 C133.66 101 134.32 101 135 101 C135.28875 99.906875 135.5775 98.81375 135.875 97.6875 C137 94 137 94 139 91 C138.76787034 85.95998592 138.76787034 85.95998592 136 82 C136 81.01 136 80.02 136 79 C135.34 78.67 134.68 78.34 134 78 C132.45428722 75.68143083 131.20381448 73.49361571 130 71 C129.33609033 70.99576806 128.67218065 70.99153612 127.9881525 70.98717594 C111.85648591 70.88400834 95.72486625 70.77539173 79.59327793 70.66066074 C71.79226259 70.60531073 63.99124268 70.55182587 56.19018555 70.50268555 C49.39320818 70.45986543 42.59626473 70.41359302 35.79933971 70.36312145 C32.19823862 70.33650293 28.59714434 70.31164951 24.9960041 70.29092598 C20.98239248 70.26776426 16.96887652 70.23689723 12.95532227 70.20532227 C11.15134727 70.19668907 11.15134727 70.19668907 9.31092834 70.18788147 C8.22412781 70.17809265 7.13732727 70.16830383 6.01759338 70.15821838 C5.06722482 70.15176583 4.11685625 70.14531328 3.13768864 70.1386652 C1 70 1 70 0 69 C0 46.23 0 23.46 0 0 Z M181 72 C180.34987982 73.30024036 179.72332894 74.61262879 179.125 75.9375 C177.95782699 78.07731718 176.71509232 79.28490768 175 81 C174.319375 82.03125 173.63875 83.0625 172.9375 84.125 C171 87 171 87 169 88 C168.60235737 89.98821313 168.27571139 91.99124558 168 94 C167.68325425 95.33737094 167.35729936 96.67288808 167 98 C166.34 98 165.68 98 165 98 C163.98888907 101.04913228 163.98888907 101.04913228 165 104 C164.34 104 163.68 104 163 104 C161.59316575 108.11898036 161.59316575 108.11898036 160.4375 112.3125 C160 114 160 114 159 115 C158.95907063 117.33297433 158.95758277 119.66705225 159 122 C158.67 122 158.34 122 158 122 C158 124.97 158 127.94 158 131 C161.29218243 131.08184984 164.58227829 131.14090488 167.875 131.1875 C168.7928125 131.21263672 169.710625 131.23777344 170.65625 131.26367188 C180.16468892 131.36411313 189.61952682 129.36134326 197 123 C203.86100089 114.70744167 204.78330978 105.44413034 204 95 C202.83260251 88.01523519 200.22249001 81.89676299 195 77 C190.36388856 73.98982338 186.57738053 72 181 72 Z M160 157 C161 159 161 159 161 159 Z " fill="#FBFBFB" transform="translate(3,97)"/>
<path d="M0 0 C6.93 0 13.86 0 21 0 C21.71986577 7.10150437 22.14274528 14.06518245 22.11352539 21.19961548 C22.11367425 22.16385984 22.11382311 23.1281042 22.11397648 24.12156808 C22.11328777 27.31886142 22.10547233 30.51609568 22.09765625 33.71337891 C22.09573515 36.01876798 22.09427226 38.32415748 22.0932312 40.62954712 C22.09008044 45.57580981 22.08382771 50.52205524 22.07516479 55.46831131 C22.0616155 63.28261434 22.05574324 71.0969117 22.05102539 78.91122437 C22.04385087 89.85764973 22.03359857 100.80406841 22.02050781 111.75048828 C22.01968 112.44380931 22.01885219 113.13713034 22.01799929 113.8514611 C22.01209542 118.77597418 22.00605877 123.7004871 22 128.625 C21.99306407 134.26774077 21.98620018 139.91048161 21.97949219 145.55322266 C21.97866406 146.24872426 21.97783593 146.94422586 21.97698271 147.66080327 C21.96331677 159.24039159 21.95358981 170.8199794 21.94658184 182.39957368 C21.9415858 190.17596498 21.93170724 197.95233049 21.91815186 205.72871137 C21.91072433 210.54920104 21.90738323 215.3696871 21.9051857 220.19018173 C21.90330447 222.43445296 21.89968545 224.67872346 21.89425278 226.92298889 C21.88710048 229.97208322 21.88599615 233.02111974 21.88647461 236.07022095 C21.88108217 237.42031956 21.88108217 237.42031956 21.87558079 238.79769289 C21.49170807 242.71223443 21.49170807 242.71223443 23 246 C24.66985299 246.10831816 26.34426952 246.14685731 28.01759338 246.15821838 C29.10439392 246.1680072 30.19119446 246.17779602 31.31092834 246.18788147 C32.51357834 246.19363693 33.71622833 246.1993924 34.95532227 246.20532227 C36.21367889 246.21522186 37.47203552 246.22512146 38.76852417 246.23532104 C42.22907786 246.26243276 45.68964527 246.28340826 49.15024686 246.30332303 C52.76310831 246.32514407 56.37592715 246.35255169 59.98875427 246.37937927 C66.83460417 246.42935882 73.68047766 246.47427805 80.5263738 246.51740164 C89.7740949 246.57594522 99.02176 246.64226024 108.26943111 246.70815182 C122.84624973 246.81180878 137.42311611 246.90504317 152 247 C152 270.43 152 293.86 152 318 C104.15 318 56.3 318 7 318 C7 317.34 7 316.68 7 316 C5.88882813 315.76925781 4.77765625 315.53851563 3.6328125 315.30078125 C-14.9103702 311.30577318 -29.83413135 303.03893791 -40.91015625 287.30078125 C-44.00240739 282.41675842 -46.16474391 277.46831407 -48 272 C-48.30550781 271.10023438 -48.61101562 270.20046875 -48.92578125 269.2734375 C-51.3578452 261.64298093 -52.14775278 254.25692445 -52.1942749 246.28433228 C-52.20289055 245.43123895 -52.2115062 244.57814563 -52.22038293 243.69920099 C-52.2476866 240.85368729 -52.26800184 238.00817082 -52.28808594 235.16259766 C-52.30582027 233.11707841 -52.3238223 231.07156147 -52.34207153 229.02604675 C-52.50070096 210.39802735 -52.58534972 191.76929193 -52.65206528 173.14074135 C-52.70236058 159.3767422 -52.78843857 145.61392974 -52.92068648 131.85046923 C-53.01062811 122.16366764 -53.0585018 112.47719239 -53.07564378 102.78999174 C-53.08710895 97.0071876 -53.11743475 91.22590581 -53.19359589 85.44356155 C-53.26447744 80.00435419 -53.28326465 74.56742274 -53.26247787 69.12781715 C-53.26390458 67.13513815 -53.28409667 65.14236804 -53.32471848 63.15010262 C-53.61602018 48.08683934 -53.61602018 48.08683934 -49.57097626 42.86329269 C-46.81584896 40.5922168 -44.08274933 38.78684508 -41 37 C-39.323724 35.58981558 -39.323724 35.58981558 -38.01953125 34.1796875 C-33.89070987 29.86817491 -29.6753371 25.8155339 -25.1652832 21.90917969 C-20.629606 17.90996944 -16.29165659 13.69395714 -11.91601562 9.52148438 C-10.83416992 8.49571289 -10.83416992 8.49571289 -9.73046875 7.44921875 C-9.08489014 6.83393311 -8.43931152 6.21864746 -7.77416992 5.5847168 C-5.09434479 3.19105436 -3.66702431 2 0 2 C0 1.34 0 0.68 0 0 Z " fill="#294661" transform="translate(356,97)"/>
<path d="M0 0 C5.49613581 17.29450735 6.15029218 34.93322755 3.6875 52.8125 C3.51118042 54.10160278 3.51118042 54.10160278 3.33129883 55.41674805 C1.91567482 64.82861243 -0.76881513 73.20313047 -5.1875 81.625 C-5.55552734 82.34300781 -5.92355469 83.06101562 -6.30273438 83.80078125 C-7.19435641 85.53770729 -8.09607479 87.26944484 -9 89 C-9.66 89 -10.32 89 -11 89 C-11.185625 89.66 -11.37125 90.32 -11.5625 91 C-18.29405432 105.0484612 -34.26617518 115.87746834 -48 122 C-48.91007812 122.41378906 -49.82015625 122.82757813 -50.7578125 123.25390625 C-52.83157504 124.18677435 -54.91053212 125.10300621 -57 126 C-54.08128031 131.68948584 -50.80319113 136.6650877 -46.80078125 141.64453125 C-44.96931259 144.04013993 -43.39055742 146.49383719 -41.8125 149.0625 C-38.79370637 153.92119043 -35.46279307 158.45521728 -32 163 C-28.05388994 168.18454259 -24.39101719 173.40534432 -20.97265625 178.95703125 C-16.73514226 185.49371125 -12.0269313 191.7164233 -7.44189453 198.01171875 C-5.21609797 201.08095126 -3.04560274 204.1870154 -0.8828125 207.30078125 C0.71819225 209.59599761 2.32908851 211.88346908 3.9453125 214.16796875 C4.47825928 214.92134521 5.01120605 215.67472168 5.56030273 216.45092773 C6.61912806 217.94694545 7.6785065 219.4425719 8.73852539 220.93774414 C10.16502645 222.95436051 11.58463807 224.97555362 13 227 C13.41330566 227.58716797 13.82661133 228.17433594 14.25244141 228.77929688 C17 232.76476648 17 232.76476648 17 235 C17.66 235 18.32 235 19 235 C22.14135768 238.26217913 22 239.11787503 22 244 C-6.71 244 -35.42 244 -65 244 C-65.99 241.69 -66.98 239.38 -68 237 C-69.41490576 234.93366433 -70.89566969 232.9109388 -72.4375 230.9375 C-75.45912722 227.04670759 -78.2967623 223.1186907 -81 219 C-81.99392415 217.55829232 -82.99386766 216.12071456 -84 214.6875 C-84.59941406 213.83285156 -85.19882813 212.97820312 -85.81640625 212.09765625 C-87.48704978 209.72767356 -89.16182776 207.36084818 -90.83984375 204.99609375 C-95.95422794 197.78255858 -101.00083599 190.54570578 -105.87109375 183.1640625 C-108.54336741 179.19242641 -111.29740635 175.28236396 -114.0625 171.375 C-114.5786084 170.64506836 -115.0947168 169.91513672 -115.62646484 169.16308594 C-117.82550399 166.05698712 -120.03130005 162.95649456 -122.25390625 159.8671875 C-123.18009766 158.57167969 -123.18009766 158.57167969 -124.125 157.25 C-124.64320313 156.53328125 -125.16140625 155.8165625 -125.6953125 155.078125 C-127.1243553 152.80192509 -128.07532409 150.51864106 -129 148 C-129.66 148 -130.32 148 -131 148 C-132.19542478 146.31874988 -133.30712843 144.57751917 -134.375 142.8125 C-136.20704366 139.79810217 -137.9799105 137.0240794 -140.2421875 134.3125 C-142 132 -142 132 -141.75 129.1875 C-141.5025 128.465625 -141.255 127.74375 -141 127 C-139.515 126.505 -139.515 126.505 -138 126 C-138 125.34 -138 124.68 -138 124 C-136.48772933 122.6697891 -134.91330976 121.40972409 -133.3125 120.1875 C-129.61749366 117.30955844 -126.26788176 114.36124981 -123 111 C-121.7315625 110.01 -121.7315625 110.01 -120.4375 109 C-117.94560177 107.1029767 -117.94560177 107.1029767 -116.1875 104.6875 C-113.83089452 101.79224184 -111.28604455 99.55633866 -108.45703125 97.13671875 C-105.49984537 94.56504836 -102.62356123 91.91434395 -99.75 89.25 C-98.61721258 88.20049376 -97.48439991 87.15101477 -96.3515625 86.1015625 C-95.78985352 85.58110352 -95.22814453 85.06064453 -94.64941406 84.52441406 C-92.15029533 82.21468976 -89.63718929 79.9205045 -87.125 77.625 C-79.3705079 70.52969766 -71.70292872 63.340838 -64.03125 56.15625 C-51.44085366 44.3652439 -51.44085366 44.3652439 -46.0625 39.5625 C-38.17273657 32.50735618 -30.51287842 25.1978568 -22.8125 17.9375 C-21.36470304 16.5724343 -19.91630672 15.20800399 -18.46728516 13.84423828 C-17.11137748 12.56807127 -15.75679976 11.29048914 -14.40380859 10.01123047 C-3.76255865 0 -3.76255865 0 0 0 Z " fill="#294762" transform="translate(277,171)"/>
<path d="M0 0 C0.6130031 10.52321981 0.6130031 10.52321981 -1.375 15.3125 C-3.91641122 17.91442101 -6.15034942 19.28540567 -9.25 21.125 C-11.96304271 22.74754515 -11.96304271 22.74754515 -14 25 C-14.85942515 29.12627617 -14.61340099 32.84931997 -14 37 C-12.78763672 37.18175781 -12.78763672 37.18175781 -11.55078125 37.3671875 C-10.48214844 37.53476562 -9.41351563 37.70234375 -8.3125 37.875 C-7.25675781 38.03742188 -6.20101562 38.19984375 -5.11328125 38.3671875 C0.68782576 39.54633347 4.20924209 41.34278314 8 46 C8.33203125 48.48046875 8.33203125 48.48046875 8 51 C6.45261867 52.92221284 4.65100107 54.17173252 2.69238281 55.67333984 C0.61404561 57.46936392 -1.01427063 59.1182916 -2.77392578 61.18603516 C-8.3689301 67.49634108 -13.10379128 71.6154025 -21.72940063 72.41668701 C-26.41431251 72.59821924 -31.06539341 72.51899406 -35.75 72.375 C-37.69269177 72.3665648 -39.63541767 72.36392135 -41.578125 72.3671875 C-55.35732904 72.32133548 -55.35732904 72.32133548 -58 71 C-57.94763184 72.15935059 -57.89526367 73.31870117 -57.84130859 74.51318359 C-57.65897244 78.85483205 -57.54504451 83.19615059 -57.45068359 87.54052734 C-57.40069041 89.4128527 -57.33266545 91.28479349 -57.24560547 93.15576172 C-56.50278758 109.5414505 -56.50278758 109.5414505 -60.13208008 114.3996582 C-62.62860116 116.90900663 -65.11196596 118.96358347 -68 121 C-69.32345712 122.13315998 -70.63841206 123.27648285 -71.9375 124.4375 C-72.89462891 125.25541016 -72.89462891 125.25541016 -73.87109375 126.08984375 C-77.43456759 129.28716248 -80.75026944 132.73220364 -84.09375 136.15625 C-86.90766347 138.97416051 -89.90275887 141.56018521 -92.91210938 144.16601562 C-96.35580289 147.19092508 -99.67275656 150.34821666 -103 153.5 C-108.232893 158.45693966 -113.55529917 163.27686839 -119 168 C-120.66878324 169.47677835 -122.33591759 170.95542661 -124 172.4375 C-124.763125 173.11683594 -125.52625 173.79617188 -126.3125 174.49609375 C-126.869375 174.99238281 -127.42625 175.48867188 -128 176 C-128.99 175.67 -129.98 175.34 -131 175 C-131.09407209 160.61210979 -131.16401618 146.2242683 -131.20724869 131.83613205 C-131.22774197 125.15317351 -131.25611934 118.47044669 -131.30175781 111.78759766 C-131.34562261 105.32308185 -131.36922196 98.85876493 -131.37950897 92.39411163 C-131.38682807 89.94328944 -131.40111743 87.49247656 -131.42292023 85.04174042 C-131.62685647 61.1402794 -130.18505984 36.75976159 -112.9375 18.375 C-101.00404003 7.06224013 -86.37786168 1.00517847 -70.00415039 0.79467773 C-69.33176834 0.78477814 -68.65938629 0.77487854 -67.96662903 0.76467896 C-65.76033954 0.73328687 -63.55402901 0.70837941 -61.34765625 0.68359375 C-59.80357858 0.66298916 -58.2595061 0.64199185 -56.71543884 0.62062073 C-52.65923455 0.56559009 -48.60298048 0.51613038 -44.54669189 0.46777344 C-40.4327731 0.41763944 -36.31893228 0.36178046 -32.20507812 0.30664062 C-26.17850063 0.22699538 -20.15190812 0.14876322 -14.12524414 0.07592773 C-12.91534317 0.06117905 -11.7054422 0.04643036 -10.45887756 0.03123474 C-6.97238049 -0.00024941 -3.48661885 -0.00541652 0 0 Z " fill="#284561" transform="translate(134,228)"/>
<path d="M0 0 C63.69 0 127.38 0 193 0 C193 0.66 193 1.32 193 2 C193.60328125 2.12117188 194.2065625 2.24234375 194.828125 2.3671875 C196.02695312 2.61855469 196.02695312 2.61855469 197.25 2.875 C198.03890625 3.03742188 198.8278125 3.19984375 199.640625 3.3671875 C201.96831144 3.99150075 203.89031952 4.84838542 206 6 C205.67 6.99 205.34 7.98 205 9 C204.84916932 10.93566044 204.72742845 12.8736757 204.625 14.8125 C204.2439125 19.52774688 203.8438559 23.07744014 201 27 C194.85081299 31.73999832 189.60827124 32.86279365 182 32 C179.07233053 30.92385825 176.70098832 29.60058567 174 28 C174 27.34 174 26.68 174 26 C170.44622262 25.66941606 168.3944224 25.79840633 165.1875 27.4375 C162.10877258 31.04400926 162.10862114 34.37866435 162 39 C162.66 39 163.32 39 164 39 C165.66018932 44.18809163 165.63212858 48.55874683 163.4375 53.5625 C160.90228609 57.45334912 158.17614795 60.83859256 154 63 C150.26259569 63.58803336 146.7529706 63.37163307 143 63 C142.10667969 62.91878906 141.21335938 62.83757812 140.29296875 62.75390625 C138.19129496 62.53877429 136.09471835 62.27471716 134 62 C133.690625 62.78375 133.38125 63.5675 133.0625 64.375 C132 67 132 67 131 69 C114.06742495 69.15375865 97.13481097 69.30179567 80.2021265 69.4429636 C72.34053498 69.50864013 64.47896816 69.57621074 56.61743164 69.64819336 C49.76777416 69.71090615 42.91809704 69.77011304 36.06837267 69.82505554 C32.43928595 69.85428879 28.81023399 69.88531441 25.18120003 69.92053413 C21.13653879 69.95972197 17.09185413 69.99108452 13.04711914 70.02172852 C11.22911804 70.04114754 11.22911804 70.04114754 9.37438965 70.06095886 C7.73156761 70.0715181 7.73156761 70.0715181 6.05555725 70.08229065 C4.61894289 70.09473485 4.61894289 70.09473485 3.15330601 70.10743046 C1 70 1 70 0 69 C0 46.23 0 23.46 0 0 Z " fill="#284661" transform="translate(3,97)"/>
<path d="M0 0 C1.1446875 -0.06638672 2.289375 -0.13277344 3.46875 -0.20117188 C11.63347657 -0.34832683 11.63347657 -0.34832683 14.81054688 2.59912109 C16.3722104 4.9070705 17.59972318 7.1523853 18.75 9.6875 C19.12987061 10.39350342 19.50974121 11.09950684 19.90112305 11.8269043 C21.13297417 14.52691506 20.74731991 15.92239843 19.75 18.6875 C17.74609375 20.8984375 17.74609375 20.8984375 15.1875 23.0625 C13.83398438 24.22652344 13.83398438 24.22652344 12.453125 25.4140625 C11.11507812 26.53941406 11.11507812 26.53941406 9.75 27.6875 C8.30961676 28.93417653 6.87181319 30.18384458 5.4375 31.4375 C4.79167969 32.00082031 4.14585937 32.56414062 3.48046875 33.14453125 C1.13752823 35.23360914 -1.05814046 37.44084397 -3.25 39.6875 C-7.62130228 44.15362445 -12.05505807 48.44120871 -16.79296875 52.515625 C-20.1314241 55.46662846 -23.37497264 58.51474482 -26.625 61.5625 C-30.7784422 65.45641555 -34.93792709 69.33561773 -39.1875 73.125 C-43.6619172 77.12645028 -48.05527575 81.21070605 -52.4375 85.3125 C-53.10322021 85.93439209 -53.76894043 86.55628418 -54.45483398 87.19702148 C-58.279867 90.78611166 -62.0195692 94.44399452 -65.71606445 98.16503906 C-67.49989223 99.93552291 -69.34451504 101.6114472 -71.25 103.25 C-71.91128906 103.82234375 -72.57257813 104.3946875 -73.25390625 104.984375 C-74.59067348 106.12494351 -75.93187834 107.26033036 -77.27734375 108.390625 C-78.22287109 109.18726563 -78.22287109 109.18726563 -79.1875 110 C-79.75339844 110.47050781 -80.31929687 110.94101563 -80.90234375 111.42578125 C-82.38445384 112.66700473 -82.38445384 112.66700473 -83.25 114.6875 C-84.24 114.6875 -85.23 114.6875 -86.25 114.6875 C-87.23248524 110.6347484 -87.33159574 106.84888263 -87.25 102.6875 C-87.91 102.6875 -88.57 102.6875 -89.25 102.6875 C-89.25 97.4075 -89.25 92.1275 -89.25 86.6875 C-87.85007813 86.65011719 -86.45015625 86.61273438 -85.0078125 86.57421875 C-83.13018408 86.50850176 -81.25258106 86.44205647 -79.375 86.375 C-78.4571875 86.35244141 -77.539375 86.32988281 -76.59375 86.30664062 C-67.43403287 85.95186285 -57.17696084 84.21423644 -50.25 77.6875 C-44.19154521 68.40389764 -42.8333023 58.76379239 -44.74609375 47.859375 C-46.58328726 41.09185992 -48.98576885 35.76390091 -55.01953125 31.92578125 C-57.73112519 30.43249011 -60.45759242 29.02257403 -63.25 27.6875 C-63.25 27.0275 -63.25 26.3675 -63.25 25.6875 C-61.24896268 23.88109245 -59.25007665 22.21282548 -57.125 20.5625 C-56.49480957 20.07257568 -55.86461914 19.58265137 -55.21533203 19.07788086 C-38.51494606 6.36691628 -20.94387228 0.4423078 0 0 Z " fill="#2A4763" transform="translate(250.25,141.3125)"/>
<path d="M0 0 C0 19.47 0 38.94 0 59 C-20.46 59 -40.92 59 -62 59 C-60.96765082 53.83825411 -60.53697676 53.24115892 -56.61328125 50.25390625 C-54.76391899 48.87014955 -54.76391899 48.87014955 -52.4375 46.4375 C-50 44 -50 44 -47.4375 42 C-44.94560177 40.1029767 -44.94560177 40.1029767 -43.1875 37.6875 C-40.83089452 34.79224184 -38.28604455 32.55633866 -35.45703125 30.13671875 C-32.49983892 27.56504275 -29.62370391 24.91419834 -26.75 22.25 C-26.19763672 21.73872559 -25.64527344 21.22745117 -25.07617188 20.70068359 C-23.94691925 19.65530899 -22.81785117 18.609735 -21.68896484 17.56396484 C-18.98403783 15.05922901 -16.27524015 12.55877071 -13.5625 10.0625 C-12.17224609 8.78052734 -12.17224609 8.78052734 -10.75390625 7.47265625 C-2.43127962 0 -2.43127962 0 0 0 Z " fill="#274661" transform="translate(76,356)"/>
<path d="M0 0 C64.35 0.495 64.35 0.495 130 1 C130 24.43 130 47.86 130 72 C82.15 72 34.3 72 -15 72 C-15 71.01 -15 70.02 -15 69 C32.19 69 79.38 69 128 69 C128 47.22 128 25.44 128 3 C85.76 3 43.52 3 0 3 C0 2.01 0 1.02 0 0 Z " fill="#496177" transform="translate(378,343)"/>
<path d="M0 0 C0.66 0.33 1.32 0.66 2 1 C2 4 2 4 0.75 5.60644531 C-0.11625 6.45867676 -0.11625 6.45867676 -1 7.328125 C-1.63615234 7.95984619 -2.27230469 8.59156738 -2.92773438 9.24243164 C-3.61158203 9.9049292 -4.29542969 10.56742676 -5 11.25 C-5.68900391 11.92732178 -6.37800781 12.60464355 -7.08789062 13.30249023 C-11.58759774 17.70075211 -16.15478075 21.98255169 -21 26 C-22.31489128 27.10131794 -23.62745597 28.20542054 -24.9375 29.3125 C-25.50339844 29.78300781 -26.06929687 30.25351563 -26.65234375 30.73828125 C-28.13445384 31.97950473 -28.13445384 31.97950473 -29 34 C-29.99 34 -30.98 34 -32 34 C-32.98248524 29.9472484 -33.08159574 26.16138263 -33 22 C-33.66 22 -34.32 22 -35 22 C-35 16.72 -35 11.44 -35 6 C-33.60007813 5.96261719 -32.20015625 5.92523438 -30.7578125 5.88671875 C-28.88018408 5.82100176 -27.00258106 5.75455647 -25.125 5.6875 C-23.74828125 5.65366211 -23.74828125 5.65366211 -22.34375 5.61914062 C-15.15868882 5.340846 -8.24761893 4.28418757 -1.84033203 0.83862305 C-1.23302246 0.56187744 -0.62571289 0.28513184 0 0 Z " fill="#354F69" transform="translate(196,222)"/>
<path d="M0 0 C1.41110894 2.82221788 0.52254327 4.20255104 -0.375 7.1875 C-2.8328681 15.39953594 -3.14217809 23.01651186 -3.11352539 31.53491211 C-3.11367142 32.67710205 -3.11381744 33.81929199 -3.1139679 34.99609375 C-3.11327343 38.75653 -3.10550286 42.51691619 -3.09765625 46.27734375 C-3.09579042 48.89050774 -3.09436729 51.50367208 -3.09336853 54.11683655 C-3.09026759 60.2825319 -3.08207095 66.4482094 -3.07201904 72.61389691 C-3.06081939 79.63689773 -3.05533776 86.65989944 -3.05032361 93.68290699 C-3.03988725 108.1219474 -3.02210907 122.56097285 -3 137 C-0.36 134.69 2.28 132.38 5 130 C5.66 130.33 6.32 130.66 7 131 C3.37 134.3 -0.26 137.6 -4 141 C-4.99 140.67 -5.98 140.34 -7 140 C-7.09407209 125.61210979 -7.16401618 111.2242683 -7.20724869 96.83613205 C-7.22774197 90.15317351 -7.25611934 83.47044669 -7.30175781 76.78759766 C-7.34562261 70.32308185 -7.36922196 63.85876493 -7.37950897 57.39411163 C-7.38682807 54.94328944 -7.40111743 52.49247656 -7.42292023 50.04174042 C-7.56917215 32.90091924 -7.31567034 15.82253767 0 0 Z " fill="#647A8A" transform="translate(10,263)"/>
<path d="M0 0 C0.66 0 1.32 0 2 0 C2 19.47 2 38.94 2 59 C-18.46 59 -38.92 59 -60 59 C-59.67 57.35 -59.34 55.7 -59 54 C-58.67 54.66 -58.34 55.32 -58 56 C-38.86 56 -19.72 56 0 56 C0 38.51 0 21.02 0 3 C-0.66 2.67 -1.32 2.34 -2 2 C-1.34 1.34 -0.68 0.68 0 0 Z " fill="#4F687B" transform="translate(74,356)"/>
<path d="M0 0 C2 1.6875 2 1.6875 4 4 C4 5.65 4 7.3 4 9 C-24.71 9 -53.42 9 -83 9 C-83 8.01 -83 7.02 -83 6 C-55.61 5.67 -28.22 5.34 0 5 C0 3.35 0 1.7 0 0 Z " fill="#445D74" transform="translate(295,406)"/>
<path d="M0 0 C5.19887841 1.67106806 6.93895463 4.10999734 9.7734375 8.6015625 C11.43108732 11.84295419 11.84611913 14.38379944 12 18 C12.66 18 13.32 18 14 18 C16.30248285 27.49774174 14.18049848 35.48916014 9.36328125 43.8359375 C8.68845703 44.90714844 8.68845703 44.90714844 8 46 C7.34 45.67 6.68 45.34 6 45 C6.27714844 44.46890625 6.55429688 43.9378125 6.83984375 43.390625 C7.20207031 42.68421875 7.56429687 41.9778125 7.9375 41.25 C8.29714844 40.55390625 8.65679687 39.8578125 9.02734375 39.140625 C12.7681437 30.90786045 11.86116781 20.59623556 8.98828125 12.22265625 C6.85885286 7.43354655 3.74184392 3.64394684 0 0 Z " fill="#65798A" transform="translate(195,172)"/>
<path d="M0 0 C0.66 0.33 1.32 0.66 2 1 C1.00795408 2.33926199 0.00573778 3.67098936 -1 5 C-1.556875 5.763125 -2.11375 6.52625 -2.6875 7.3125 C-7.32062928 12.69694754 -13.77216833 19.70931577 -21 21 C-16.15343168 14.90717126 -10.57438867 9.79457602 -4.828125 4.57421875 C-3.18862879 3.08191488 -1.56762857 1.56762857 0 0 Z " fill="#4F687D" transform="translate(186,252)"/>
<path d="M0 0 C0.66 0.33 1.32 0.66 2 1 C1.0479279 2.00596297 0.08812654 3.00461563 -0.875 4 C-1.40867188 4.556875 -1.94234375 5.11375 -2.4921875 5.6875 C-4 7 -4 7 -6 7 C-6.2475 7.61875 -6.495 8.2375 -6.75 8.875 C-8.23740369 11.40358627 -9.43678009 11.71839004 -12 13 C-12.70151152 14.3153341 -13.36525925 15.65117592 -14 17 C-15.9375 19.25 -15.9375 19.25 -18 21 C-18.99 21 -19.98 21 -21 21 C-20.484375 21.78375 -19.96875 22.5675 -19.4375 23.375 C-18.7259375 24.674375 -18.7259375 24.674375 -18 26 C-18.33 26.66 -18.66 27.32 -19 28 C-20.5625 26.3125 -20.5625 26.3125 -22 24 C-21.6875 21.25 -21.6875 21.25 -21 19 C-20.01 18.67 -19.02 18.34 -18 18 C-18 17.34 -18 16.68 -18 16 C-16.48772933 14.6697891 -14.91330976 13.40972409 -13.3125 12.1875 C-9.60274285 9.29514697 -6.22227884 6.41756847 -3 3 C-2 2 -1 1 0 0 Z " fill="#667B8B" transform="translate(157,279)"/>
<path d="M0 0 C0.66 0.33 1.32 0.66 2 1 C-0.05517788 3.27784723 -2.11858628 5.54718455 -4.1875 7.8125 C-4.76564453 8.45509766 -5.34378906 9.09769531 -5.93945312 9.75976562 C-9.08424998 13.1888379 -11.89714414 15.72679608 -16 18 C-17.312006 19.18511954 -18.58659486 20.41352015 -19.8125 21.6875 C-20.41707031 22.31011719 -21.02164063 22.93273437 -21.64453125 23.57421875 C-22.31548828 24.27998047 -22.31548828 24.27998047 -23 25 C-23.66 24.67 -24.32 24.34 -25 24 C-11.96030138 10.78140307 -11.96030138 10.78140307 -5.58984375 5.3671875 C-3.62342114 3.67616069 -1.79556567 1.87038091 0 0 Z " fill="#597184" transform="translate(227,214)"/>
<path d="M0 0 C0 3.25825674 -0.30211864 4.28740848 -2 7 C-3.65513953 8.63885947 -5.36928431 10.21937606 -7.125 11.75 C-8.49011719 12.94882812 -8.49011719 12.94882812 -9.8828125 14.171875 C-10.58148438 14.77515625 -11.28015625 15.3784375 -12 16 C-12.33 14.68 -12.66 13.36 -13 12 C-8.71 8.04 -4.42 4.08 0 0 Z " fill="#496579" transform="translate(45,382)"/>
<path d="M0 0 C0.66 0.33 1.32 0.66 2 1 C0.92338719 2.4425402 -0.16160103 3.87883161 -1.25 5.3125 C-1.85328125 6.11300781 -2.4565625 6.91351563 -3.078125 7.73828125 C-4.92939568 9.91691077 -6.57208361 11.49954767 -9 13 C-9.99 13 -10.98 13 -12 13 C-10.86528532 9.59585597 -9.82774013 8.75723352 -7.125 6.5 C-4.64584653 4.41421775 -2.2560424 2.32698713 0 0 Z " fill="#4E6B7E" transform="translate(29,397)"/>
<path d="M0 0 C-2 3 -2 3 -4.8125 3.625 C-5.864375 3.74875 -6.91625 3.8725 -8 4 C-9.66804677 4.32635698 -11.33524314 4.65725594 -13 5 C-13 5.66 -13 6.32 -13 7 C-13.99 6.67 -14.98 6.34 -16 6 C-11.34887439 2.09305449 -6.17401031 -0.56127366 0 0 Z " fill="#446379" transform="translate(225,146)"/>
<path d="M0 0 C0.66 0.33 1.32 0.66 2 1 C-1.3 3.97 -4.6 6.94 -8 10 C-8.66 9.67 -9.32 9.34 -10 9 C-8.60064115 5.59635112 -7.12995268 4.09193812 -4 2.1875 C-3.29875 1.74792969 -2.5975 1.30835938 -1.875 0.85546875 C-1.25625 0.57316406 -0.6375 0.29085938 0 0 Z " fill="#2D4F67" transform="translate(54,376)"/>
<path d="M0 0 C2.31 0 4.62 0 7 0 C7 0.66 7 1.32 7 2 C9.97 2.495 9.97 2.495 13 3 C13 3.33 13 3.66 13 4 C11.20793453 3.85915204 9.41635083 3.71216299 7.625 3.5625 C6.62726563 3.48128906 5.62953125 3.40007812 4.6015625 3.31640625 C2 3 2 3 0 2 C0 1.34 0 0.68 0 0 Z " fill="#677A8B" transform="translate(189,97)"/>
<path d="M0 0 C-1.3125 1.5 -1.3125 1.5 -3 3 C-3.99 3 -4.98 3 -6 3 C-5.484375 3.78375 -4.96875 4.5675 -4.4375 5.375 C-3.963125 6.24125 -3.48875 7.1075 -3 8 C-3.33 8.66 -3.66 9.32 -4 10 C-6.15650737 7.67097204 -7.01450945 6.60939697 -6.9375 3.375 C-6 1 -6 1 -4.0625 -0.375 C-2 -1 -2 -1 0 0 Z " fill="#576E7F" transform="translate(142,297)"/>
<path d="M0 0 C0.53625 0.268125 1.0725 0.53625 1.625 0.8125 C0.4803125 1.4621875 0.4803125 1.4621875 -0.6875 2.125 C-3.91402237 4.08233012 -3.91402237 4.08233012 -6.375 6.8125 C-7.10541853 10.42273099 -7.10541853 10.42273099 -7.375 13.8125 C-7.705 13.8125 -8.035 13.8125 -8.375 13.8125 C-9.27854331 6.13238189 -9.27854331 6.13238189 -7.1796875 3.06640625 C-4.83480048 0.98664464 -3.19200109 -0.25200009 0 0 Z " fill="#CCD2D4" transform="translate(173.375,122.1875)"/>
<path d="M0 0 C0.66 0.33 1.32 0.66 2 1 C2 1.99 2 2.98 2 4 C1.01 4.495 1.01 4.495 0 5 C0 4.34 0 3.68 0 3 C-0.598125 3.350625 -1.19625 3.70125 -1.8125 4.0625 C-4 5 -4 5 -7 4 C-1.7265625 0.77734375 -1.7265625 0.77734375 0 0 Z " fill="#5B7284" transform="translate(196,222)"/>
<path d="M0 0 C3.93846154 3.32307692 3.93846154 3.32307692 4.25 6.75 C4.1675 7.4925 4.085 8.235 4 9 C3.34 9 2.68 9 2 9 C2 8.01 2 7.02 2 6 C1.34 5.67 0.68 5.34 0 5 C0 3.35 0 1.7 0 0 Z " fill="#5D7585" transform="translate(295,406)"/>
<path d="M0 0 C0.66 0.33 1.32 0.66 2 1 C1.21625 1.7425 0.4325 2.485 -0.375 3.25 C-2.56504531 5.54433318 -3.82731386 7.12158858 -5 10 C-5.3125 7.25 -5.3125 7.25 -5 4 C-2.5 1.625 -2.5 1.625 0 0 Z " fill="#D7DBDD" transform="translate(124,249)"/>
<path d="" fill="#FAFDFB" transform="translate(0,0)"/>
<path d="" fill="#FBFAFA" transform="translate(0,0)"/>
<path d="" fill="#FEFEFE" transform="translate(0,0)"/>
<path d="" fill="#FFFFFF" transform="translate(0,0)"/>
<path d="" fill="#FFFFFE" transform="translate(0,0)"/>
<path d="" fill="#FEFDFE" transform="translate(0,0)"/>
<path d="" fill="#FFFFFE" transform="translate(0,0)"/>
<path d="" fill="#FFFEFC" transform="translate(0,0)"/>
<path d="" fill="#FFFFFF" transform="translate(0,0)"/>
<path d="" fill="#FFFFFF" transform="translate(0,0)"/>
<path d="" fill="#FDFDFE" transform="translate(0,0)"/>
<path d="" fill="#FAFBFC" transform="translate(0,0)"/>
<path d="" fill="#F6FFFF" transform="translate(0,0)"/>
<path d="" fill="#F7F9F4" transform="translate(0,0)"/>
<path d="" fill="#FCFCFB" transform="translate(0,0)"/>
<path d="" fill="#F8F8F6" transform="translate(0,0)"/>
<path d="" fill="#FDFDFA" transform="translate(0,0)"/>
<path d="" fill="#FCFEF9" transform="translate(0,0)"/>
<path d="" fill="#FEFFFB" transform="translate(0,0)"/>
<path d="" fill="#FFFFFC" transform="translate(0,0)"/>
<path d="" fill="#FFFFFA" transform="translate(0,0)"/>
<path d="" fill="#F7F7F6" transform="translate(0,0)"/>
<path d="" fill="#F7F8F7" transform="translate(0,0)"/>
<path d="" fill="#F9F9F8" transform="translate(0,0)"/>
<path d="" fill="#FBFAFA" transform="translate(0,0)"/>
<path d="" fill="#FFFEFF" transform="translate(0,0)"/>
<path d="" fill="#FFFFFF" transform="translate(0,0)"/>
<path d="" fill="#FFFFFF" transform="translate(0,0)"/>
<path d="" fill="#FDFFFF" transform="translate(0,0)"/>
<path d="" fill="#FFFFFF" transform="translate(0,0)"/>
<path d="" fill="#FAFFFC" transform="translate(0,0)"/>
<path d="" fill="#FEFFFE" transform="translate(0,0)"/>
<path d="" fill="#F5FFFC" transform="translate(0,0)"/>
<path d="" fill="#FCFFFD" transform="translate(0,0)"/>
<path d="" fill="#ECFCFB" transform="translate(0,0)"/>
<path d="" fill="#F6FFFE" transform="translate(0,0)"/>
<path d="" fill="#FCFEFD" transform="translate(0,0)"/>
<path d="" fill="#EBF3F6" transform="translate(0,0)"/>
<path d="" fill="#F8FFFC" transform="translate(0,0)"/>
<path d="" fill="#EAF4F2" transform="translate(0,0)"/>
<path d="" fill="#F0F7F5" transform="translate(0,0)"/>
<path d="" fill="#F6F7F5" transform="translate(0,0)"/>
</svg>
